<svg version="1.1" id="Layer_1" xmlns="http://www.w3.org/2000/svg" xmlns:xlink="http://www.w3.org/1999/xlink" x="0px" y="0px"
	 width="100%" viewBox="0 0 308 412" enable-background="new 0 0 308 412" xml:space="preserve">
<path fill="#FEFFFF" opacity="1.000000" stroke="none" 
	d="
M184.000000,413.000000 
	C122.687790,413.000000 61.875576,413.000000 1.031682,413.000000 
	C1.031682,275.735474 1.031682,138.470947 1.031682,1.103204 
	C103.562126,1.103204 206.124390,1.103204 308.843323,1.103204 
	C308.843323,138.333191 308.843323,275.666565 308.843323,413.000000 
	C267.471039,413.000000 225.985519,413.000000 184.000000,413.000000 
M276.999481,273.107727 
	C274.243225,263.559631 269.207214,259.688690 259.336578,259.675385 
	C239.184158,259.648285 219.031662,259.667206 198.879211,259.667267 
	C150.246841,259.667389 101.614456,259.642548 52.982128,259.685608 
	C41.090633,259.696167 34.998871,265.672424 34.880333,277.247589 
	C34.805298,284.574982 34.843117,291.903870 34.874825,299.231903 
	C34.889946,302.726929 34.606483,306.286713 35.160248,309.703400 
	C36.518169,318.081665 43.558090,322.851257 54.162628,322.855560 
	C106.958717,322.877075 159.754822,322.865448 212.550919,322.865417 
	C228.206543,322.865387 243.862579,322.933685 259.517639,322.841339 
	C270.380890,322.777283 277.045288,316.168579 277.113983,305.471588 
	C277.181366,294.980316 277.083588,284.488037 276.999481,273.107727 
M134.951981,50.333344 
	C114.892792,58.219887 98.301262,80.471367 100.766464,106.995422 
	C103.566208,137.118820 129.273804,158.723465 160.983093,157.006180 
	C188.596939,155.510712 212.456436,129.155579 211.655182,101.033943 
	C210.538605,61.845463 172.534683,36.344177 134.951981,50.333344 
M239.372787,363.245270 
	C244.402237,361.870239 248.735077,358.688843 249.370193,353.812042 
	C250.338715,346.375153 249.623962,338.719025 249.623962,331.258484 
	C186.939682,331.258484 124.569946,331.258484 61.863529,331.258484 
	C61.863529,336.461243 62.270229,341.313721 61.783195,346.074768 
	C60.579659,357.840057 69.249031,364.114838 79.702560,364.037903 
	C130.840866,363.661499 181.983444,363.871033 233.124512,363.852264 
	C234.943207,363.851593 236.761841,363.628815 239.372787,363.245270 
M161.230591,164.992599 
	C150.638321,163.833954 140.046051,162.675308 129.537292,161.525803 
	C129.537292,179.444412 129.537292,198.477600 129.537292,217.444702 
	C147.483948,217.444702 165.016312,217.444702 182.364532,217.444702 
	C182.364532,198.039886 182.364532,179.067902 182.364532,160.395950 
	C175.344879,161.988266 168.751190,163.483948 161.230591,164.992599 
M156.500000,225.947281 
	C139.846939,225.947464 123.193787,225.974014 106.540878,225.922806 
	C103.643524,225.913895 100.729576,226.234940 100.581863,229.680069 
	C100.278976,236.744293 100.490936,243.830612 100.490936,250.889862 
	C137.832947,250.889862 174.539490,250.889862 211.723434,250.889862 
	C211.723434,244.566513 211.771576,238.602020 211.709518,232.638672 
	C211.650833,226.997711 210.595978,225.963379 204.961151,225.955292 
	C189.140793,225.932587 173.320389,225.947281 156.500000,225.947281 
z"/>
<path fill="#549BCB" opacity="1.000000" stroke="none" 
	d="
M277.028870,273.551941 
	C277.083588,284.488037 277.181366,294.980316 277.113983,305.471588 
	C277.045288,316.168579 270.380890,322.777283 259.517639,322.841339 
	C243.862579,322.933685 228.206543,322.865387 212.550919,322.865417 
	C159.754822,322.865448 106.958717,322.877075 54.162628,322.855560 
	C43.558090,322.851257 36.518169,318.081665 35.160248,309.703400 
	C34.606483,306.286713 34.889946,302.726929 34.874825,299.231903 
	C34.843117,291.903870 34.805298,284.574982 34.880333,277.247589 
	C34.998871,265.672424 41.090633,259.696167 52.982128,259.685608 
	C101.614456,259.642548 150.246841,259.667389 198.879211,259.667267 
	C219.031662,259.667206 239.184158,259.648285 259.336578,259.675385 
	C269.207214,259.688690 274.243225,263.559631 277.028870,273.551941 
z"/>
<path fill="#549BCB" opacity="1.000000" stroke="none" 
	d="
M135.313995,50.191971 
	C172.534683,36.344177 210.538605,61.845463 211.655182,101.033943 
	C212.456436,129.155579 188.596939,155.510712 160.983093,157.006180 
	C129.273804,158.723465 103.566208,137.118820 100.766464,106.995422 
	C98.301262,80.471367 114.892792,58.219887 135.313995,50.191971 
z"/>
<path fill="#549CCB" opacity="1.000000" stroke="none" 
	d="
M238.976654,363.377411 
	C236.761841,363.628815 234.943207,363.851593 233.124512,363.852264 
	C181.983444,363.871033 130.840866,363.661499 79.702560,364.037903 
	C69.249031,364.114838 60.579659,357.840057 61.783195,346.074768 
	C62.270229,341.313721 61.863529,336.461243 61.863529,331.258484 
	C124.569946,331.258484 186.939682,331.258484 249.623962,331.258484 
	C249.623962,338.719025 250.338715,346.375153 249.370193,353.812042 
	C248.735077,358.688843 244.402237,361.870239 238.976654,363.377411 
z"/>
<path fill="#569DCC" opacity="1.000000" stroke="none" 
	d="
M161.694046,164.986115 
	C168.751190,163.483948 175.344879,161.988266 182.364532,160.395950 
	C182.364532,179.067902 182.364532,198.039886 182.364532,217.444702 
	C165.016312,217.444702 147.483948,217.444702 129.537292,217.444702 
	C129.537292,198.477600 129.537292,179.444412 129.537292,161.525803 
	C140.046051,162.675308 150.638321,163.833954 161.694046,164.986115 
z"/>
<path fill="#549CCB" opacity="1.000000" stroke="none" 
	d="
M157.000000,225.947250 
	C173.320389,225.947281 189.140793,225.932587 204.961151,225.955292 
	C210.595978,225.963379 211.650833,226.997711 211.709518,232.638672 
	C211.771576,238.602020 211.723434,244.566513 211.723434,250.889862 
	C174.539490,250.889862 137.832947,250.889862 100.490936,250.889862 
	C100.490936,243.830612 100.278976,236.744293 100.581863,229.680069 
	C100.729576,226.234940 103.643524,225.913895 106.540878,225.922806 
	C123.193787,225.974014 139.846939,225.947464 157.000000,225.947250 
z"/>
</svg>